<mxfile host="app.diagrams.net" modified="2024-01-18T14:34:39.839Z" agent="Mozilla/5.0 (Windows NT 10.0; Win64; x64) AppleWebKit/537.36 (KHTML, like Gecko) Chrome/120.0.0.0 Safari/537.36" version="22.1.20" etag="va-2DXfaIsSk6vFdngNk" type="github">
  <diagram name="Page-1" id="d3s0_YLngz-X_iCJRQth">
    <mxGraphModel>
      <root>
        <mxCell id="0" />
        <mxCell id="1" parent="0" />
      </root>
    </mxGraphModel>
  </diagram>
</mxfile>
